<?xml version="1.0" standalone="no"?>
<!DOCTYPE svg PUBLIC "-//W3C//DTD SVG 20010904//EN"
 "http://www.w3.org/TR/2001/REC-SVG-20010904/DTD/svg10.dtd">
<svg version="1.0" xmlns="http://www.w3.org/2000/svg"
 width="225.000000pt" height="225.000000pt" viewBox="0 0 225.000000 225.000000"
 preserveAspectRatio="xMidYMid meet">
<metadata>
Created by potrace 1.11, written by Peter Selinger 2001-2013
</metadata>
<g transform="translate(0.000000,225.000000) scale(0.100000,-0.100000)"
fill="#000000" stroke="none">
<path d="M982 2239 c-683 -88 -1127 -766 -936 -1427 107 -367 399 -659 766
-766 322 -93 696 -31 961 161 327 236 509 632 469 1017 -32 295 -139 517 -348
716 -244 233 -579 343 -912 299z m303 -104 c405 -66 726 -360 831 -760 22 -83
27 -124 27 -240 2 -185 -25 -309 -101 -460 -256 -513 -867 -719 -1376 -463
-105 52 -155 87 -243 171 -312 297 -407 747 -240 1143 90 214 273 409 481 513
198 98 409 131 621 96z"/>
<path d="M832 1568 c-17 -17 -17 -869 0 -886 7 -7 22 -12 34 -12 12 0 187 95
390 210 337 192 369 213 372 239 2 15 -3 32 -10 38 -42 35 -732 423 -751 423
-13 0 -28 -5 -35 -12z m375 -285 c150 -86 270 -159 266 -163 -13 -11 -540
-310 -547 -310 -3 0 -6 142 -6 315 0 173 3 315 6 315 4 0 130 -70 281 -157z"/>
</g>
</svg>
